<svg width="714" height="159" viewBox="0 0 714 159" fill="none" xmlns="http://www.w3.org/2000/svg">
<rect x="50" y="59" width="6" height="61" fill="#1A202C"/>
<rect x="96" y="59" width="6" height="61" fill="#1A202C"/>
<rect x="237" y="59" width="6" height="61" fill="#1A202C"/>
<rect x="377" y="59" width="6" height="61" fill="#1A202C"/>
<rect x="610" y="59" width="6" height="61" fill="#1A202C"/>
<rect x="283" y="59" width="6" height="61" fill="#1A202C"/>
<rect x="516" y="59" width="6" height="61" fill="#1A202C"/>
<rect x="423" y="59" width="6" height="61" fill="#1A202C"/>
<rect x="656" y="59" width="6" height="61" fill="#1A202C"/>
<rect x="190" y="59" width="6" height="61" fill="#1A202C"/>
<rect x="471" y="59" width="6" height="61" fill="#1A202C"/>
<path d="M0 89L15 79.4737L15 98.5263L0 89Z" fill="#1A202C"/>
<path d="M714 89L699 98.5263V79.4737L714 89Z" fill="#1A202C"/>
<rect x="10" y="86" width="691" height="7" fill="#1A202C"/>
<path d="M45.7607 29.0713V31.1631H45.5146C44.3662 31.1807 43.4404 31.4795 42.7373 32.0596C42.04 32.6396 41.6211 33.4453 41.4805 34.4766C42.1602 33.7852 43.0186 33.4395 44.0557 33.4395C45.1689 33.4395 46.0537 33.8379 46.71 34.6348C47.3662 35.4316 47.6943 36.4805 47.6943 37.7812C47.6943 38.6133 47.5127 39.3662 47.1494 40.04C46.792 40.7139 46.2822 41.2383 45.6201 41.6133C44.9639 41.9883 44.2197 42.1758 43.3877 42.1758C42.04 42.1758 40.9502 41.707 40.1182 40.7695C39.292 39.832 38.8789 38.5811 38.8789 37.0166V36.1025C38.8789 34.7139 39.1396 33.4893 39.6611 32.4287C40.1885 31.3623 40.9414 30.5391 41.9199 29.959C42.9043 29.373 44.0439 29.0771 45.3389 29.0713H45.7607ZM43.2822 35.4785C42.8721 35.4785 42.5 35.5869 42.166 35.8037C41.832 36.0146 41.5859 36.2959 41.4277 36.6475V37.4209C41.4277 38.2705 41.5947 38.9355 41.9287 39.416C42.2627 39.8906 42.7314 40.1279 43.335 40.1279C43.8799 40.1279 44.3193 39.9141 44.6533 39.4863C44.9932 39.0527 45.1631 38.4932 45.1631 37.8076C45.1631 37.1104 44.9932 36.5479 44.6533 36.1201C44.3135 35.6924 43.8564 35.4785 43.2822 35.4785ZM57.8193 36.709C57.8193 38.4785 57.4531 39.832 56.7207 40.7695C55.9883 41.707 54.916 42.1758 53.5039 42.1758C52.1094 42.1758 51.043 41.7158 50.3047 40.7959C49.5664 39.876 49.1885 38.5576 49.1709 36.8408V34.4854C49.1709 32.6982 49.54 31.3418 50.2783 30.416C51.0225 29.4902 52.0918 29.0273 53.4863 29.0273C54.8809 29.0273 55.9473 29.4873 56.6855 30.4072C57.4238 31.3213 57.8018 32.6367 57.8193 34.3535V36.709ZM55.2793 34.125C55.2793 33.0645 55.1328 32.2939 54.8398 31.8135C54.5527 31.3271 54.1016 31.084 53.4863 31.084C52.8887 31.084 52.4463 31.3154 52.1592 31.7783C51.8779 32.2354 51.7285 32.9531 51.7109 33.9316V37.043C51.7109 38.0859 51.8516 38.8623 52.1328 39.3721C52.4199 39.876 52.877 40.1279 53.5039 40.1279C54.125 40.1279 54.5732 39.8848 54.8486 39.3984C55.124 38.9121 55.2676 38.168 55.2793 37.166V34.125ZM68.1553 36.709C68.1553 38.4785 67.7891 39.832 67.0566 40.7695C66.3242 41.707 65.252 42.1758 63.8398 42.1758C62.4453 42.1758 61.3789 41.7158 60.6406 40.7959C59.9023 39.876 59.5244 38.5576 59.5068 36.8408V34.4854C59.5068 32.6982 59.876 31.3418 60.6143 30.416C61.3584 29.4902 62.4277 29.0273 63.8223 29.0273C65.2168 29.0273 66.2832 29.4873 67.0215 30.4072C67.7598 31.3213 68.1377 32.6367 68.1553 34.3535V36.709ZM65.6152 34.125C65.6152 33.0645 65.4688 32.2939 65.1758 31.8135C64.8887 31.3271 64.4375 31.084 63.8223 31.084C63.2246 31.084 62.7822 31.3154 62.4951 31.7783C62.2139 32.2354 62.0645 32.9531 62.0469 33.9316V37.043C62.0469 38.0859 62.1875 38.8623 62.4688 39.3721C62.7559 39.876 63.2129 40.1279 63.8398 40.1279C64.4609 40.1279 64.9092 39.8848 65.1846 39.3984C65.46 38.9121 65.6035 38.168 65.6152 37.166V34.125Z" fill="#2D3748"/>
<path d="M606.761 29.0713V31.1631H606.515C605.366 31.1807 604.44 31.4795 603.737 32.0596C603.04 32.6396 602.621 33.4453 602.48 34.4766C603.16 33.7852 604.019 33.4395 605.056 33.4395C606.169 33.4395 607.054 33.8379 607.71 34.6348C608.366 35.4316 608.694 36.4805 608.694 37.7812C608.694 38.6133 608.513 39.3662 608.149 40.04C607.792 40.7139 607.282 41.2383 606.62 41.6133C605.964 41.9883 605.22 42.1758 604.388 42.1758C603.04 42.1758 601.95 41.707 601.118 40.7695C600.292 39.832 599.879 38.5811 599.879 37.0166V36.1025C599.879 34.7139 600.14 33.4893 600.661 32.4287C601.188 31.3623 601.941 30.5391 602.92 29.959C603.904 29.373 605.044 29.0771 606.339 29.0713H606.761ZM604.282 35.4785C603.872 35.4785 603.5 35.5869 603.166 35.8037C602.832 36.0146 602.586 36.2959 602.428 36.6475V37.4209C602.428 38.2705 602.595 38.9355 602.929 39.416C603.263 39.8906 603.731 40.1279 604.335 40.1279C604.88 40.1279 605.319 39.9141 605.653 39.4863C605.993 39.0527 606.163 38.4932 606.163 37.8076C606.163 37.1104 605.993 36.5479 605.653 36.1201C605.313 35.6924 604.856 35.4785 604.282 35.4785ZM618.819 36.709C618.819 38.4785 618.453 39.832 617.721 40.7695C616.988 41.707 615.916 42.1758 614.504 42.1758C613.109 42.1758 612.043 41.7158 611.305 40.7959C610.566 39.876 610.188 38.5576 610.171 36.8408V34.4854C610.171 32.6982 610.54 31.3418 611.278 30.416C612.022 29.4902 613.092 29.0273 614.486 29.0273C615.881 29.0273 616.947 29.4873 617.686 30.4072C618.424 31.3213 618.802 32.6367 618.819 34.3535V36.709ZM616.279 34.125C616.279 33.0645 616.133 32.2939 615.84 31.8135C615.553 31.3271 615.102 31.084 614.486 31.084C613.889 31.084 613.446 31.3154 613.159 31.7783C612.878 32.2354 612.729 32.9531 612.711 33.9316V37.043C612.711 38.0859 612.852 38.8623 613.133 39.3721C613.42 39.876 613.877 40.1279 614.504 40.1279C615.125 40.1279 615.573 39.8848 615.849 39.3984C616.124 38.9121 616.268 38.168 616.279 37.166V34.125ZM629.155 36.709C629.155 38.4785 628.789 39.832 628.057 40.7695C627.324 41.707 626.252 42.1758 624.84 42.1758C623.445 42.1758 622.379 41.7158 621.641 40.7959C620.902 39.876 620.524 38.5576 620.507 36.8408V34.4854C620.507 32.6982 620.876 31.3418 621.614 30.416C622.358 29.4902 623.428 29.0273 624.822 29.0273C626.217 29.0273 627.283 29.4873 628.021 30.4072C628.76 31.3213 629.138 32.6367 629.155 34.3535V36.709ZM626.615 34.125C626.615 33.0645 626.469 32.2939 626.176 31.8135C625.889 31.3271 625.438 31.084 624.822 31.084C624.225 31.084 623.782 31.3154 623.495 31.7783C623.214 32.2354 623.064 32.9531 623.047 33.9316V37.043C623.047 38.0859 623.188 38.8623 623.469 39.3721C623.756 39.876 624.213 40.1279 624.84 40.1279C625.461 40.1279 625.909 39.8848 626.185 39.3984C626.46 38.9121 626.604 38.168 626.615 37.166V34.125Z" fill="#2D3748"/>
<path d="M653.571 30.627L648.623 42H645.942L650.899 31.2598H644.536V29.2031H653.571V30.627ZM663.819 36.709C663.819 38.4785 663.453 39.832 662.721 40.7695C661.988 41.707 660.916 42.1758 659.504 42.1758C658.109 42.1758 657.043 41.7158 656.305 40.7959C655.566 39.876 655.188 38.5576 655.171 36.8408V34.4854C655.171 32.6982 655.54 31.3418 656.278 30.416C657.022 29.4902 658.092 29.0273 659.486 29.0273C660.881 29.0273 661.947 29.4873 662.686 30.4072C663.424 31.3213 663.802 32.6367 663.819 34.3535V36.709ZM661.279 34.125C661.279 33.0645 661.133 32.2939 660.84 31.8135C660.553 31.3271 660.102 31.084 659.486 31.084C658.889 31.084 658.446 31.3154 658.159 31.7783C657.878 32.2354 657.729 32.9531 657.711 33.9316V37.043C657.711 38.0859 657.852 38.8623 658.133 39.3721C658.42 39.876 658.877 40.1279 659.504 40.1279C660.125 40.1279 660.573 39.8848 660.849 39.3984C661.124 38.9121 661.268 38.168 661.279 37.166V34.125ZM674.155 36.709C674.155 38.4785 673.789 39.832 673.057 40.7695C672.324 41.707 671.252 42.1758 669.84 42.1758C668.445 42.1758 667.379 41.7158 666.641 40.7959C665.902 39.876 665.524 38.5576 665.507 36.8408V34.4854C665.507 32.6982 665.876 31.3418 666.614 30.416C667.358 29.4902 668.428 29.0273 669.822 29.0273C671.217 29.0273 672.283 29.4873 673.021 30.4072C673.76 31.3213 674.138 32.6367 674.155 34.3535V36.709ZM671.615 34.125C671.615 33.0645 671.469 32.2939 671.176 31.8135C670.889 31.3271 670.438 31.084 669.822 31.084C669.225 31.084 668.782 31.3154 668.495 31.7783C668.214 32.2354 668.064 32.9531 668.047 33.9316V37.043C668.047 38.0859 668.188 38.8623 668.469 39.3721C668.756 39.876 669.213 40.1279 669.84 40.1279C670.461 40.1279 670.909 39.8848 671.185 39.3984C671.46 38.9121 671.604 38.168 671.615 37.166V34.125Z" fill="#2D3748"/>
<path d="M85.248 35.707L85.9863 29.2031H93.1582V31.3213H88.0693L87.7529 34.0723C88.3564 33.75 88.998 33.5889 89.6777 33.5889C90.8965 33.5889 91.8516 33.9668 92.543 34.7227C93.2344 35.4785 93.5801 36.5361 93.5801 37.8955C93.5801 38.7217 93.4043 39.4629 93.0527 40.1191C92.707 40.7695 92.209 41.2764 91.5586 41.6396C90.9082 41.9971 90.1406 42.1758 89.2559 42.1758C88.4824 42.1758 87.7646 42.0205 87.1025 41.71C86.4404 41.3936 85.916 40.9512 85.5293 40.3828C85.1484 39.8145 84.9463 39.167 84.9229 38.4404H87.4365C87.4893 38.9736 87.6738 39.3896 87.9902 39.6885C88.3125 39.9814 88.7314 40.1279 89.2471 40.1279C89.8213 40.1279 90.2637 39.9229 90.5742 39.5127C90.8848 39.0967 91.04 38.5107 91.04 37.7549C91.04 37.0283 90.8613 36.4717 90.5039 36.085C90.1465 35.6982 89.6396 35.5049 88.9834 35.5049C88.3799 35.5049 87.8906 35.6631 87.5156 35.9795L87.2695 36.208L85.248 35.707ZM103.819 36.709C103.819 38.4785 103.453 39.832 102.721 40.7695C101.988 41.707 100.916 42.1758 99.5039 42.1758C98.1094 42.1758 97.043 41.7158 96.3047 40.7959C95.5664 39.876 95.1885 38.5576 95.1709 36.8408V34.4854C95.1709 32.6982 95.54 31.3418 96.2783 30.416C97.0225 29.4902 98.0918 29.0273 99.4863 29.0273C100.881 29.0273 101.947 29.4873 102.686 30.4072C103.424 31.3213 103.802 32.6367 103.819 34.3535V36.709ZM101.279 34.125C101.279 33.0645 101.133 32.2939 100.84 31.8135C100.553 31.3271 100.102 31.084 99.4863 31.084C98.8887 31.084 98.4463 31.3154 98.1592 31.7783C97.8779 32.2354 97.7285 32.9531 97.7109 33.9316V37.043C97.7109 38.0859 97.8516 38.8623 98.1328 39.3721C98.4199 39.876 98.877 40.1279 99.5039 40.1279C100.125 40.1279 100.573 39.8848 100.849 39.3984C101.124 38.9121 101.268 38.168 101.279 37.166V34.125ZM114.155 36.709C114.155 38.4785 113.789 39.832 113.057 40.7695C112.324 41.707 111.252 42.1758 109.84 42.1758C108.445 42.1758 107.379 41.7158 106.641 40.7959C105.902 39.876 105.524 38.5576 105.507 36.8408V34.4854C105.507 32.6982 105.876 31.3418 106.614 30.416C107.358 29.4902 108.428 29.0273 109.822 29.0273C111.217 29.0273 112.283 29.4873 113.021 30.4072C113.76 31.3213 114.138 32.6367 114.155 34.3535V36.709ZM111.615 34.125C111.615 33.0645 111.469 32.2939 111.176 31.8135C110.889 31.3271 110.438 31.084 109.822 31.084C109.225 31.084 108.782 31.3154 108.495 31.7783C108.214 32.2354 108.064 32.9531 108.047 33.9316V37.043C108.047 38.0859 108.188 38.8623 108.469 39.3721C108.756 39.876 109.213 40.1279 109.84 40.1279C110.461 40.1279 110.909 39.8848 111.185 39.3984C111.46 38.9121 111.604 38.168 111.615 37.166V34.125Z" fill="#2D3748"/>
<path d="M552.248 35.707L552.986 29.2031H560.158V31.3213H555.069L554.753 34.0723C555.356 33.75 555.998 33.5889 556.678 33.5889C557.896 33.5889 558.852 33.9668 559.543 34.7227C560.234 35.4785 560.58 36.5361 560.58 37.8955C560.58 38.7217 560.404 39.4629 560.053 40.1191C559.707 40.7695 559.209 41.2764 558.559 41.6396C557.908 41.9971 557.141 42.1758 556.256 42.1758C555.482 42.1758 554.765 42.0205 554.103 41.71C553.44 41.3936 552.916 40.9512 552.529 40.3828C552.148 39.8145 551.946 39.167 551.923 38.4404H554.437C554.489 38.9736 554.674 39.3896 554.99 39.6885C555.312 39.9814 555.731 40.1279 556.247 40.1279C556.821 40.1279 557.264 39.9229 557.574 39.5127C557.885 39.0967 558.04 38.5107 558.04 37.7549C558.04 37.0283 557.861 36.4717 557.504 36.085C557.146 35.6982 556.64 35.5049 555.983 35.5049C555.38 35.5049 554.891 35.6631 554.516 35.9795L554.27 36.208L552.248 35.707ZM570.819 36.709C570.819 38.4785 570.453 39.832 569.721 40.7695C568.988 41.707 567.916 42.1758 566.504 42.1758C565.109 42.1758 564.043 41.7158 563.305 40.7959C562.566 39.876 562.188 38.5576 562.171 36.8408V34.4854C562.171 32.6982 562.54 31.3418 563.278 30.416C564.022 29.4902 565.092 29.0273 566.486 29.0273C567.881 29.0273 568.947 29.4873 569.686 30.4072C570.424 31.3213 570.802 32.6367 570.819 34.3535V36.709ZM568.279 34.125C568.279 33.0645 568.133 32.2939 567.84 31.8135C567.553 31.3271 567.102 31.084 566.486 31.084C565.889 31.084 565.446 31.3154 565.159 31.7783C564.878 32.2354 564.729 32.9531 564.711 33.9316V37.043C564.711 38.0859 564.852 38.8623 565.133 39.3721C565.42 39.876 565.877 40.1279 566.504 40.1279C567.125 40.1279 567.573 39.8848 567.849 39.3984C568.124 38.9121 568.268 38.168 568.279 37.166V34.125ZM581.155 36.709C581.155 38.4785 580.789 39.832 580.057 40.7695C579.324 41.707 578.252 42.1758 576.84 42.1758C575.445 42.1758 574.379 41.7158 573.641 40.7959C572.902 39.876 572.524 38.5576 572.507 36.8408V34.4854C572.507 32.6982 572.876 31.3418 573.614 30.416C574.358 29.4902 575.428 29.0273 576.822 29.0273C578.217 29.0273 579.283 29.4873 580.021 30.4072C580.76 31.3213 581.138 32.6367 581.155 34.3535V36.709ZM578.615 34.125C578.615 33.0645 578.469 32.2939 578.176 31.8135C577.889 31.3271 577.438 31.084 576.822 31.084C576.225 31.084 575.782 31.3154 575.495 31.7783C575.214 32.2354 575.064 32.9531 575.047 33.9316V37.043C575.047 38.0859 575.188 38.8623 575.469 39.3721C575.756 39.876 576.213 40.1279 576.84 40.1279C577.461 40.1279 577.909 39.8848 578.185 39.3984C578.46 38.9121 578.604 38.168 578.615 37.166V34.125Z" fill="#2D3748"/>
<path d="M142.385 37.1836H143.835V39.2314H142.385V42H139.845V39.2314H134.598L134.483 37.6318L139.818 29.2031H142.385V37.1836ZM137.015 37.1836H139.845V32.666L139.678 32.9561L137.015 37.1836ZM153.819 36.709C153.819 38.4785 153.453 39.832 152.721 40.7695C151.988 41.707 150.916 42.1758 149.504 42.1758C148.109 42.1758 147.043 41.7158 146.305 40.7959C145.566 39.876 145.188 38.5576 145.171 36.8408V34.4854C145.171 32.6982 145.54 31.3418 146.278 30.416C147.022 29.4902 148.092 29.0273 149.486 29.0273C150.881 29.0273 151.947 29.4873 152.686 30.4072C153.424 31.3213 153.802 32.6367 153.819 34.3535V36.709ZM151.279 34.125C151.279 33.0645 151.133 32.2939 150.84 31.8135C150.553 31.3271 150.102 31.084 149.486 31.084C148.889 31.084 148.446 31.3154 148.159 31.7783C147.878 32.2354 147.729 32.9531 147.711 33.9316V37.043C147.711 38.0859 147.852 38.8623 148.133 39.3721C148.42 39.876 148.877 40.1279 149.504 40.1279C150.125 40.1279 150.573 39.8848 150.849 39.3984C151.124 38.9121 151.268 38.168 151.279 37.166V34.125ZM164.155 36.709C164.155 38.4785 163.789 39.832 163.057 40.7695C162.324 41.707 161.252 42.1758 159.84 42.1758C158.445 42.1758 157.379 41.7158 156.641 40.7959C155.902 39.876 155.524 38.5576 155.507 36.8408V34.4854C155.507 32.6982 155.876 31.3418 156.614 30.416C157.358 29.4902 158.428 29.0273 159.822 29.0273C161.217 29.0273 162.283 29.4873 163.021 30.4072C163.76 31.3213 164.138 32.6367 164.155 34.3535V36.709ZM161.615 34.125C161.615 33.0645 161.469 32.2939 161.176 31.8135C160.889 31.3271 160.438 31.084 159.822 31.084C159.225 31.084 158.782 31.3154 158.495 31.7783C158.214 32.2354 158.064 32.9531 158.047 33.9316V37.043C158.047 38.0859 158.188 38.8623 158.469 39.3721C158.756 39.876 159.213 40.1279 159.84 40.1279C160.461 40.1279 160.909 39.8848 161.185 39.3984C161.46 38.9121 161.604 38.168 161.615 37.166V34.125Z" fill="#2D3748"/>
<path d="M275.911 7.33594C275.82 8.08789 275.617 8.76465 275.303 9.36621C274.988 9.96777 274.599 10.4189 274.134 10.7197C273.669 11.016 273.154 11.1572 272.589 11.1436C271.732 11.1253 271.076 10.8359 270.62 10.2754L269.957 13.8438H268.72L270.497 3.60352L271.618 3.59668L271.481 4.42383C272.092 3.76758 272.824 3.44857 273.676 3.4668C274.387 3.48503 274.94 3.74707 275.337 4.25293C275.733 4.75879 275.943 5.45605 275.966 6.34473C275.97 6.63639 275.959 6.91895 275.932 7.19238L275.911 7.33594ZM274.694 7.19238L274.729 6.61816C274.729 5.9528 274.601 5.44466 274.346 5.09375C274.095 4.73828 273.73 4.55143 273.252 4.5332C272.536 4.51497 271.919 4.85449 271.399 5.55176L270.777 9.09961C271.055 9.75586 271.554 10.0931 272.274 10.1113C272.89 10.125 273.411 9.88574 273.84 9.39355C274.273 8.89681 274.558 8.16309 274.694 7.19238ZM281.51 4.73145L280.929 4.66992C280.136 4.66992 279.511 5.02767 279.056 5.74316L278.146 11H276.909L278.194 3.60352L279.391 3.59668L279.206 4.45801C279.73 3.76986 280.348 3.4349 281.059 3.45312C281.209 3.45312 281.405 3.4873 281.646 3.55566L281.51 4.73145ZM280.245 1.65527L281.455 0.506836L282.542 0.486328L282.549 0.575195L280.594 2.44141H279.842L278.434 0.582031V0.486328L279.459 0.5L280.245 1.65527ZM281.633 9.56445C281.856 9.5599 282.041 9.62826 282.187 9.76953C282.332 9.91081 282.403 10.0931 282.398 10.3164C282.394 10.5397 282.319 10.722 282.173 10.8633C282.027 11 281.845 11.0729 281.626 11.082C281.407 11.0911 281.227 11.0296 281.086 10.8975C280.945 10.7607 280.874 10.5807 280.874 10.3574C280.874 10.1341 280.945 9.94954 281.086 9.80371C281.227 9.65332 281.41 9.57357 281.633 9.56445ZM290.26 3.59668L290.082 4.5332C290.747 3.80404 291.504 3.44857 292.352 3.4668C293.049 3.48503 293.564 3.72656 293.896 4.19141C294.229 4.65625 294.352 5.31022 294.266 6.15332L293.459 11H292.222L293.035 6.13281C293.062 5.90951 293.065 5.70215 293.042 5.51074C292.965 4.87272 292.589 4.54688 291.914 4.5332C291.171 4.51953 290.52 4.91602 289.959 5.72266L289.043 11H287.806L289.091 3.60352L290.26 3.59668ZM296.275 9.56445C296.499 9.5599 296.683 9.62826 296.829 9.76953C296.975 9.91081 297.046 10.0931 297.041 10.3164C297.036 10.5397 296.961 10.722 296.815 10.8633C296.67 11 296.487 11.0729 296.269 11.082C296.05 11.0911 295.87 11.0296 295.729 10.8975C295.587 10.7607 295.517 10.5807 295.517 10.3574C295.517 10.1341 295.587 9.94954 295.729 9.80371C295.87 9.65332 296.052 9.57357 296.275 9.56445ZM300.356 11H299.126L300.944 0.5H302.182L300.356 11ZM303.289 9.56445C303.512 9.5599 303.697 9.62826 303.843 9.76953C303.989 9.91081 304.059 10.0931 304.055 10.3164C304.05 10.5397 303.975 10.722 303.829 10.8633C303.683 11 303.501 11.0729 303.282 11.082C303.063 11.0911 302.883 11.0296 302.742 10.8975C302.601 10.7607 302.53 10.5807 302.53 10.3574C302.53 10.1341 302.601 9.94954 302.742 9.80371C302.883 9.65332 303.066 9.57357 303.289 9.56445Z" fill="#2D3748"/>
<path d="M148.924 140.859C148.846 141.504 148.672 142.084 148.402 142.6C148.133 143.115 147.799 143.502 147.4 143.76C147.002 144.014 146.561 144.135 146.076 144.123C145.342 144.107 144.779 143.859 144.389 143.379L143.82 146.438H142.76L144.283 137.66L145.244 137.654L145.127 138.363C145.65 137.801 146.277 137.527 147.008 137.543C147.617 137.559 148.092 137.783 148.432 138.217C148.771 138.65 148.951 139.248 148.971 140.01C148.975 140.26 148.965 140.502 148.941 140.736L148.924 140.859ZM147.881 140.736L147.91 140.244C147.91 139.674 147.801 139.238 147.582 138.938C147.367 138.633 147.055 138.473 146.645 138.457C146.031 138.441 145.502 138.732 145.057 139.33L144.523 142.371C144.762 142.934 145.189 143.223 145.807 143.238C146.334 143.25 146.781 143.045 147.148 142.623C147.52 142.197 147.764 141.568 147.881 140.736ZM153.723 138.627L153.225 138.574C152.545 138.574 152.01 138.881 151.619 139.494L150.84 144H149.779L150.881 137.66L151.906 137.654L151.748 138.393C152.197 137.803 152.727 137.516 153.336 137.531C153.465 137.531 153.633 137.561 153.84 137.619L153.723 138.627ZM152.639 135.99L153.676 135.006L154.607 134.988L154.613 135.064L152.938 136.664H152.293L151.086 135.07V134.988L151.965 135L152.639 135.99ZM154.924 144H153.863L154.965 137.66H156.025L154.924 144ZM156.43 135.006H157.783L155.99 136.729H155.059L156.43 135.006ZM159.395 143.238C159.773 143.246 160.115 143.137 160.42 142.91C160.725 142.68 160.924 142.379 161.018 142.008L162.02 142.002C161.961 142.4 161.801 142.764 161.539 143.092C161.281 143.42 160.955 143.676 160.561 143.859C160.166 144.043 159.762 144.129 159.348 144.117C158.82 144.109 158.373 143.973 158.006 143.707C157.643 143.438 157.375 143.064 157.203 142.588C157.031 142.107 156.973 141.568 157.027 140.971L157.057 140.678C157.131 140.068 157.309 139.523 157.59 139.043C157.871 138.562 158.238 138.189 158.691 137.924C159.145 137.654 159.645 137.527 160.191 137.543C160.855 137.559 161.387 137.781 161.785 138.211C162.184 138.641 162.383 139.186 162.383 139.846L161.393 139.84C161.385 139.426 161.27 139.092 161.047 138.838C160.824 138.58 160.523 138.443 160.145 138.428C159.594 138.416 159.135 138.621 158.768 139.043C158.404 139.465 158.178 140.055 158.088 140.812L158.07 140.965C158.047 141.215 158.043 141.473 158.059 141.738C158.086 142.195 158.215 142.557 158.445 142.822C158.676 143.088 158.992 143.227 159.395 143.238ZM164.85 138.434C165.404 137.828 166.043 137.533 166.766 137.549C167.359 137.557 167.799 137.762 168.084 138.164C168.373 138.562 168.48 139.123 168.406 139.846L167.715 144H166.654L167.352 139.828C167.375 139.637 167.377 139.459 167.357 139.295C167.291 138.748 166.969 138.469 166.391 138.457C165.742 138.441 165.184 138.781 164.715 139.477L163.93 144H162.869L164.434 135H165.494L164.85 138.434ZM172.859 137.543C173.391 137.551 173.846 137.695 174.225 137.977C174.604 138.258 174.883 138.646 175.062 139.143C175.246 139.635 175.309 140.174 175.25 140.76L175.238 140.889C175.164 141.506 174.98 142.064 174.688 142.564C174.395 143.061 174.016 143.447 173.551 143.725C173.086 144.002 172.576 144.133 172.021 144.117C171.494 144.109 171.039 143.965 170.656 143.684C170.277 143.402 170 143.02 169.824 142.535C169.648 142.051 169.586 141.518 169.637 140.936C169.695 140.279 169.873 139.689 170.17 139.166C170.467 138.643 170.848 138.238 171.312 137.953C171.781 137.664 172.297 137.527 172.859 137.543ZM170.703 140.941C170.676 141.188 170.676 141.443 170.703 141.709C170.742 142.17 170.879 142.537 171.113 142.811C171.352 143.084 171.668 143.227 172.062 143.238C172.414 143.25 172.738 143.164 173.035 142.98C173.332 142.793 173.582 142.512 173.785 142.137C173.988 141.762 174.119 141.346 174.178 140.889C174.209 140.529 174.215 140.227 174.195 139.98C174.148 139.508 174.006 139.135 173.768 138.861C173.529 138.588 173.213 138.443 172.818 138.428C172.271 138.416 171.807 138.631 171.424 139.072C171.041 139.514 170.805 140.092 170.715 140.807L170.703 140.941ZM176.346 140.818C176.424 140.174 176.602 139.592 176.879 139.072C177.156 138.553 177.498 138.164 177.904 137.906C178.311 137.648 178.758 137.525 179.246 137.537C179.953 137.553 180.496 137.811 180.875 138.311L181.484 135H182.545L180.986 144H180.02L180.131 143.32C179.631 143.867 179.014 144.133 178.279 144.117C177.693 144.102 177.227 143.873 176.879 143.432C176.531 142.986 176.344 142.391 176.316 141.645C176.305 141.414 176.314 141.139 176.346 140.818ZM177.365 141.428C177.354 141.986 177.453 142.42 177.664 142.729C177.875 143.037 178.184 143.195 178.59 143.203C179.203 143.23 179.748 142.922 180.225 142.277L180.729 139.348C180.494 138.77 180.068 138.473 179.451 138.457C179.033 138.445 178.664 138.572 178.344 138.838C178.027 139.1 177.785 139.469 177.617 139.945C177.453 140.418 177.369 140.912 177.365 141.428ZM146.188 154.045L144.939 155.164L144.447 158H143.346L144.828 149.469H145.93L145.203 153.623L149.551 149.469H150.969L147.002 153.289L149.656 158H148.432L146.188 154.045ZM153.131 158.117C152.342 158.102 151.725 157.811 151.279 157.244C150.834 156.678 150.646 155.953 150.717 155.07L150.746 154.818C150.812 154.189 150.998 153.615 151.303 153.096C151.611 152.576 151.986 152.186 152.428 151.924C152.869 151.658 153.346 151.531 153.857 151.543C154.51 151.559 155.021 151.775 155.393 152.193C155.764 152.611 155.967 153.178 156.002 153.893C156.014 154.146 156.006 154.4 155.979 154.654L155.914 155.141H151.771C151.701 155.715 151.795 156.203 152.053 156.605C152.314 157.008 152.703 157.217 153.219 157.232C153.844 157.248 154.422 156.967 154.953 156.389L155.562 156.904C155.297 157.287 154.953 157.588 154.531 157.807C154.113 158.021 153.646 158.125 153.131 158.117ZM153.805 152.428C153.367 152.416 152.984 152.564 152.656 152.873C152.332 153.182 152.074 153.641 151.883 154.25L154.965 154.256L154.988 154.162C155.051 153.67 154.971 153.262 154.748 152.938C154.529 152.609 154.215 152.439 153.805 152.428ZM157.76 158H156.705L158.264 149H159.324L157.76 158ZM162.295 150.125L162.025 151.66H163.18L163.033 152.498H161.885L161.223 156.441C161.211 156.543 161.209 156.637 161.217 156.723C161.244 157.027 161.41 157.18 161.715 157.18C161.844 157.18 162.016 157.16 162.23 157.121L162.148 158.006C161.895 158.076 161.637 158.111 161.375 158.111C160.953 158.104 160.637 157.949 160.426 157.648C160.215 157.344 160.133 156.936 160.18 156.424L160.824 152.498H159.705L159.852 151.66H160.971L161.24 150.125H162.295ZM167.387 157.373C166.891 157.885 166.26 158.133 165.494 158.117C164.889 158.102 164.439 157.885 164.146 157.467C163.857 157.049 163.75 156.479 163.824 155.756L164.504 151.66H165.564L164.879 155.773C164.859 155.945 164.855 156.113 164.867 156.277C164.887 156.559 164.971 156.779 165.119 156.939C165.268 157.1 165.475 157.186 165.74 157.197C166.498 157.221 167.084 156.914 167.498 156.277L168.295 151.66H169.355L168.254 158H167.252L167.387 157.373ZM166.021 149.732C166.029 149.377 166.158 149.076 166.408 148.83C166.662 148.584 166.963 148.461 167.311 148.461C167.631 148.461 167.902 148.574 168.125 148.801C168.352 149.027 168.465 149.307 168.465 149.639C168.457 149.986 168.326 150.281 168.072 150.523C167.822 150.766 167.523 150.887 167.176 150.887C166.848 150.887 166.57 150.775 166.344 150.553C166.121 150.33 166.014 150.057 166.021 149.732ZM166.584 149.721C166.568 149.9 166.613 150.053 166.719 150.178C166.824 150.299 166.961 150.359 167.129 150.359C167.309 150.359 167.475 150.291 167.627 150.154C167.783 150.014 167.873 149.846 167.896 149.65C167.92 149.471 167.877 149.316 167.768 149.188C167.658 149.059 167.521 148.994 167.357 148.994C167.178 148.994 167.01 149.066 166.854 149.211C166.697 149.352 166.607 149.521 166.584 149.721Z" fill="#2D3748"/>
<path d="M331.924 140.859C331.846 141.504 331.672 142.084 331.402 142.6C331.133 143.115 330.799 143.502 330.4 143.76C330.002 144.014 329.561 144.135 329.076 144.123C328.342 144.107 327.779 143.859 327.389 143.379L326.82 146.438H325.76L327.283 137.66L328.244 137.654L328.127 138.363C328.65 137.801 329.277 137.527 330.008 137.543C330.617 137.559 331.092 137.783 331.432 138.217C331.771 138.65 331.951 139.248 331.971 140.01C331.975 140.26 331.965 140.502 331.941 140.736L331.924 140.859ZM330.881 140.736L330.91 140.244C330.91 139.674 330.801 139.238 330.582 138.938C330.367 138.633 330.055 138.473 329.645 138.457C329.031 138.441 328.502 138.732 328.057 139.33L327.523 142.371C327.762 142.934 328.189 143.223 328.807 143.238C329.334 143.25 329.781 143.045 330.148 142.623C330.52 142.197 330.764 141.568 330.881 140.736ZM336.723 138.627L336.225 138.574C335.545 138.574 335.01 138.881 334.619 139.494L333.84 144H332.779L333.881 137.66L334.906 137.654L334.748 138.393C335.197 137.803 335.727 137.516 336.336 137.531C336.465 137.531 336.633 137.561 336.84 137.619L336.723 138.627ZM335.639 135.99L336.676 135.006L337.607 134.988L337.613 135.064L335.938 136.664H335.293L334.086 135.07V134.988L334.965 135L335.639 135.99ZM337.924 144H336.863L337.965 137.66H339.025L337.924 144ZM339.43 135.006H340.783L338.99 136.729H338.059L339.43 135.006ZM342.395 143.238C342.773 143.246 343.115 143.137 343.42 142.91C343.725 142.68 343.924 142.379 344.018 142.008L345.02 142.002C344.961 142.4 344.801 142.764 344.539 143.092C344.281 143.42 343.955 143.676 343.561 143.859C343.166 144.043 342.762 144.129 342.348 144.117C341.82 144.109 341.373 143.973 341.006 143.707C340.643 143.438 340.375 143.064 340.203 142.588C340.031 142.107 339.973 141.568 340.027 140.971L340.057 140.678C340.131 140.068 340.309 139.523 340.59 139.043C340.871 138.562 341.238 138.189 341.691 137.924C342.145 137.654 342.645 137.527 343.191 137.543C343.855 137.559 344.387 137.781 344.785 138.211C345.184 138.641 345.383 139.186 345.383 139.846L344.393 139.84C344.385 139.426 344.27 139.092 344.047 138.838C343.824 138.58 343.523 138.443 343.145 138.428C342.594 138.416 342.135 138.621 341.768 139.043C341.404 139.465 341.178 140.055 341.088 140.812L341.07 140.965C341.047 141.215 341.043 141.473 341.059 141.738C341.086 142.195 341.215 142.557 341.445 142.822C341.676 143.088 341.992 143.227 342.395 143.238ZM347.85 138.434C348.404 137.828 349.043 137.533 349.766 137.549C350.359 137.557 350.799 137.762 351.084 138.164C351.373 138.562 351.48 139.123 351.406 139.846L350.715 144H349.654L350.352 139.828C350.375 139.637 350.377 139.459 350.357 139.295C350.291 138.748 349.969 138.469 349.391 138.457C348.742 138.441 348.184 138.781 347.715 139.477L346.93 144H345.869L347.434 135H348.494L347.85 138.434ZM355.859 137.543C356.391 137.551 356.846 137.695 357.225 137.977C357.604 138.258 357.883 138.646 358.062 139.143C358.246 139.635 358.309 140.174 358.25 140.76L358.238 140.889C358.164 141.506 357.98 142.064 357.688 142.564C357.395 143.061 357.016 143.447 356.551 143.725C356.086 144.002 355.576 144.133 355.021 144.117C354.494 144.109 354.039 143.965 353.656 143.684C353.277 143.402 353 143.02 352.824 142.535C352.648 142.051 352.586 141.518 352.637 140.936C352.695 140.279 352.873 139.689 353.17 139.166C353.467 138.643 353.848 138.238 354.312 137.953C354.781 137.664 355.297 137.527 355.859 137.543ZM353.703 140.941C353.676 141.188 353.676 141.443 353.703 141.709C353.742 142.17 353.879 142.537 354.113 142.811C354.352 143.084 354.668 143.227 355.062 143.238C355.414 143.25 355.738 143.164 356.035 142.98C356.332 142.793 356.582 142.512 356.785 142.137C356.988 141.762 357.119 141.346 357.178 140.889C357.209 140.529 357.215 140.227 357.195 139.98C357.148 139.508 357.006 139.135 356.768 138.861C356.529 138.588 356.213 138.443 355.818 138.428C355.271 138.416 354.807 138.631 354.424 139.072C354.041 139.514 353.805 140.092 353.715 140.807L353.703 140.941ZM359.346 140.818C359.424 140.174 359.602 139.592 359.879 139.072C360.156 138.553 360.498 138.164 360.904 137.906C361.311 137.648 361.758 137.525 362.246 137.537C362.953 137.553 363.496 137.811 363.875 138.311L364.484 135H365.545L363.986 144H363.02L363.131 143.32C362.631 143.867 362.014 144.133 361.279 144.117C360.693 144.102 360.227 143.873 359.879 143.432C359.531 142.986 359.344 142.391 359.316 141.645C359.305 141.414 359.314 141.139 359.346 140.818ZM360.365 141.428C360.354 141.986 360.453 142.42 360.664 142.729C360.875 143.037 361.184 143.195 361.59 143.203C362.203 143.23 362.748 142.922 363.225 142.277L363.729 139.348C363.494 138.77 363.068 138.473 362.451 138.457C362.033 138.445 361.664 138.572 361.344 138.838C361.027 139.1 360.785 139.469 360.617 139.945C360.453 140.418 360.369 140.912 360.365 141.428ZM332.721 156.875C332.436 157.277 332.02 157.588 331.473 157.807C330.93 158.021 330.309 158.125 329.609 158.117C329.051 158.105 328.562 157.975 328.145 157.725C327.727 157.475 327.398 157.117 327.16 156.652C326.922 156.184 326.785 155.652 326.75 155.059C326.723 154.594 326.779 153.965 326.92 153.172C327.064 152.379 327.314 151.693 327.67 151.115C328.025 150.537 328.469 150.096 329 149.791C329.535 149.486 330.146 149.34 330.834 149.352C331.627 149.367 332.258 149.604 332.727 150.061C333.199 150.514 333.469 151.152 333.535 151.977H332.445C332.402 151.438 332.24 151.023 331.959 150.734C331.678 150.445 331.289 150.293 330.793 150.277C330.059 150.25 329.443 150.514 328.947 151.068C328.455 151.623 328.131 152.434 327.975 153.5L327.863 154.32L327.846 154.766C327.846 155.535 328.004 156.131 328.32 156.553C328.637 156.971 329.08 157.184 329.65 157.191C330.475 157.211 331.129 157.008 331.613 156.582L331.965 154.666H330.043L330.207 153.752H333.207L332.721 156.875ZM336.916 158.117C336.127 158.102 335.51 157.811 335.064 157.244C334.619 156.678 334.432 155.953 334.502 155.07L334.531 154.818C334.598 154.189 334.783 153.615 335.088 153.096C335.396 152.576 335.771 152.186 336.213 151.924C336.654 151.658 337.131 151.531 337.643 151.543C338.295 151.559 338.807 151.775 339.178 152.193C339.549 152.611 339.752 153.178 339.787 153.893C339.799 154.146 339.791 154.4 339.764 154.654L339.699 155.141H335.557C335.486 155.715 335.58 156.203 335.838 156.605C336.1 157.008 336.488 157.217 337.004 157.232C337.629 157.248 338.207 156.967 338.738 156.389L339.348 156.904C339.082 157.287 338.738 157.588 338.316 157.807C337.898 158.021 337.432 158.125 336.916 158.117ZM337.59 152.428C337.152 152.416 336.77 152.564 336.441 152.873C336.117 153.182 335.859 153.641 335.668 154.25L338.75 154.256L338.773 154.162C338.836 153.67 338.756 153.262 338.533 152.938C338.314 152.609 338 152.439 337.59 152.428ZM344.34 152.627L343.842 152.574C343.162 152.574 342.627 152.881 342.236 153.494L341.457 158H340.396L341.498 151.66L342.523 151.654L342.365 152.393C342.814 151.803 343.344 151.516 343.953 151.531C344.082 151.531 344.25 151.561 344.457 151.619L344.34 152.627ZM346.484 151.654L346.35 152.363C346.881 151.801 347.523 151.527 348.277 151.543C348.68 151.551 349.02 151.643 349.297 151.818C349.578 151.994 349.771 152.242 349.877 152.562C350.471 151.867 351.172 151.527 351.98 151.543C352.613 151.559 353.08 151.771 353.381 152.182C353.682 152.592 353.793 153.143 353.715 153.834L353.018 158H351.963L352.654 153.822C352.678 153.619 352.678 153.434 352.654 153.266C352.58 152.734 352.232 152.463 351.611 152.451C351.225 152.443 350.873 152.564 350.557 152.814C350.244 153.061 350.043 153.385 349.953 153.787L349.232 158H348.166L348.869 153.828C348.92 153.395 348.854 153.061 348.67 152.826C348.49 152.592 348.209 152.471 347.826 152.463C347.166 152.447 346.641 152.748 346.25 153.365L345.447 158H344.387L345.488 151.66L346.484 151.654ZM358.537 158C358.51 157.887 358.496 157.775 358.496 157.666L358.514 157.332C357.932 157.871 357.314 158.133 356.662 158.117C356.104 158.109 355.648 157.934 355.297 157.59C354.949 157.242 354.791 156.809 354.822 156.289C354.861 155.617 355.154 155.094 355.701 154.719C356.252 154.34 356.975 154.15 357.869 154.15L358.977 154.156L359.047 153.652C359.086 153.273 359.012 152.975 358.824 152.756C358.641 152.533 358.363 152.418 357.992 152.41C357.629 152.402 357.307 152.492 357.025 152.68C356.748 152.863 356.578 153.107 356.516 153.412L355.449 153.418C355.484 153.047 355.629 152.719 355.883 152.434C356.137 152.145 356.463 151.922 356.861 151.766C357.26 151.605 357.672 151.529 358.098 151.537C358.758 151.553 359.271 151.754 359.639 152.141C360.006 152.523 360.16 153.033 360.102 153.67L359.586 156.811L359.557 157.262C359.549 157.477 359.572 157.689 359.627 157.9L359.615 158H358.537ZM356.873 157.18C357.213 157.188 357.533 157.107 357.834 156.939C358.139 156.768 358.4 156.531 358.619 156.23L358.848 154.924L358.045 154.918C357.377 154.918 356.865 155.023 356.51 155.234C356.154 155.445 355.953 155.744 355.906 156.131C355.871 156.428 355.939 156.676 356.111 156.875C356.287 157.07 356.541 157.172 356.873 157.18ZM359.188 149H360.541L358.748 150.723H357.816L359.188 149ZM363.16 151.654L363.008 152.457C363.578 151.832 364.227 151.527 364.953 151.543C365.551 151.559 365.992 151.766 366.277 152.164C366.562 152.562 366.668 153.123 366.594 153.846L365.902 158H364.842L365.539 153.828C365.562 153.637 365.564 153.459 365.545 153.295C365.479 152.748 365.156 152.469 364.578 152.457C363.941 152.445 363.383 152.785 362.902 153.477L362.117 158H361.057L362.158 151.66L363.16 151.654ZM371.562 157.373C371.066 157.885 370.436 158.133 369.67 158.117C369.064 158.102 368.615 157.885 368.322 157.467C368.033 157.049 367.926 156.479 368 155.756L368.68 151.66H369.74L369.055 155.773C369.035 155.945 369.031 156.113 369.043 156.277C369.062 156.559 369.146 156.779 369.295 156.939C369.443 157.1 369.65 157.186 369.916 157.197C370.674 157.221 371.26 156.914 371.674 156.277L372.471 151.66H373.531L372.43 158H371.428L371.562 157.373ZM370.197 149.732C370.205 149.377 370.334 149.076 370.584 148.83C370.838 148.584 371.139 148.461 371.486 148.461C371.807 148.461 372.078 148.574 372.301 148.801C372.527 149.027 372.641 149.307 372.641 149.639C372.633 149.986 372.502 150.281 372.248 150.523C371.998 150.766 371.699 150.887 371.352 150.887C371.023 150.887 370.746 150.775 370.52 150.553C370.297 150.33 370.189 150.057 370.197 149.732ZM370.76 149.721C370.744 149.9 370.789 150.053 370.895 150.178C371 150.299 371.137 150.359 371.305 150.359C371.484 150.359 371.65 150.291 371.803 150.154C371.959 150.014 372.049 149.846 372.072 149.65C372.096 149.471 372.053 149.316 371.943 149.188C371.834 149.059 371.697 148.994 371.533 148.994C371.354 148.994 371.186 149.066 371.029 149.211C370.873 149.352 370.783 149.521 370.76 149.721Z" fill="#2D3748"/>
<path d="M565.924 140.859C565.846 141.504 565.672 142.084 565.402 142.6C565.133 143.115 564.799 143.502 564.4 143.76C564.002 144.014 563.561 144.135 563.076 144.123C562.342 144.107 561.779 143.859 561.389 143.379L560.82 146.438H559.76L561.283 137.66L562.244 137.654L562.127 138.363C562.65 137.801 563.277 137.527 564.008 137.543C564.617 137.559 565.092 137.783 565.432 138.217C565.771 138.65 565.951 139.248 565.971 140.01C565.975 140.26 565.965 140.502 565.941 140.736L565.924 140.859ZM564.881 140.736L564.91 140.244C564.91 139.674 564.801 139.238 564.582 138.938C564.367 138.633 564.055 138.473 563.645 138.457C563.031 138.441 562.502 138.732 562.057 139.33L561.523 142.371C561.762 142.934 562.189 143.223 562.807 143.238C563.334 143.25 563.781 143.045 564.148 142.623C564.52 142.197 564.764 141.568 564.881 140.736ZM570.723 138.627L570.225 138.574C569.545 138.574 569.01 138.881 568.619 139.494L567.84 144H566.779L567.881 137.66L568.906 137.654L568.748 138.393C569.197 137.803 569.727 137.516 570.336 137.531C570.465 137.531 570.633 137.561 570.84 137.619L570.723 138.627ZM569.639 135.99L570.676 135.006L571.607 134.988L571.613 135.064L569.938 136.664H569.293L568.086 135.07V134.988L568.965 135L569.639 135.99ZM571.924 144H570.863L571.965 137.66H573.025L571.924 144ZM573.43 135.006H574.783L572.99 136.729H572.059L573.43 135.006ZM576.395 143.238C576.773 143.246 577.115 143.137 577.42 142.91C577.725 142.68 577.924 142.379 578.018 142.008L579.02 142.002C578.961 142.4 578.801 142.764 578.539 143.092C578.281 143.42 577.955 143.676 577.561 143.859C577.166 144.043 576.762 144.129 576.348 144.117C575.82 144.109 575.373 143.973 575.006 143.707C574.643 143.438 574.375 143.064 574.203 142.588C574.031 142.107 573.973 141.568 574.027 140.971L574.057 140.678C574.131 140.068 574.309 139.523 574.59 139.043C574.871 138.562 575.238 138.189 575.691 137.924C576.145 137.654 576.645 137.527 577.191 137.543C577.855 137.559 578.387 137.781 578.785 138.211C579.184 138.641 579.383 139.186 579.383 139.846L578.393 139.84C578.385 139.426 578.27 139.092 578.047 138.838C577.824 138.58 577.523 138.443 577.145 138.428C576.594 138.416 576.135 138.621 575.768 139.043C575.404 139.465 575.178 140.055 575.088 140.812L575.07 140.965C575.047 141.215 575.043 141.473 575.059 141.738C575.086 142.195 575.215 142.557 575.445 142.822C575.676 143.088 575.992 143.227 576.395 143.238ZM581.85 138.434C582.404 137.828 583.043 137.533 583.766 137.549C584.359 137.557 584.799 137.762 585.084 138.164C585.373 138.562 585.48 139.123 585.406 139.846L584.715 144H583.654L584.352 139.828C584.375 139.637 584.377 139.459 584.357 139.295C584.291 138.748 583.969 138.469 583.391 138.457C582.742 138.441 582.184 138.781 581.715 139.477L580.93 144H579.869L581.434 135H582.494L581.85 138.434ZM589.859 137.543C590.391 137.551 590.846 137.695 591.225 137.977C591.604 138.258 591.883 138.646 592.062 139.143C592.246 139.635 592.309 140.174 592.25 140.76L592.238 140.889C592.164 141.506 591.98 142.064 591.688 142.564C591.395 143.061 591.016 143.447 590.551 143.725C590.086 144.002 589.576 144.133 589.021 144.117C588.494 144.109 588.039 143.965 587.656 143.684C587.277 143.402 587 143.02 586.824 142.535C586.648 142.051 586.586 141.518 586.637 140.936C586.695 140.279 586.873 139.689 587.17 139.166C587.467 138.643 587.848 138.238 588.312 137.953C588.781 137.664 589.297 137.527 589.859 137.543ZM587.703 140.941C587.676 141.188 587.676 141.443 587.703 141.709C587.742 142.17 587.879 142.537 588.113 142.811C588.352 143.084 588.668 143.227 589.062 143.238C589.414 143.25 589.738 143.164 590.035 142.98C590.332 142.793 590.582 142.512 590.785 142.137C590.988 141.762 591.119 141.346 591.178 140.889C591.209 140.529 591.215 140.227 591.195 139.98C591.148 139.508 591.006 139.135 590.768 138.861C590.529 138.588 590.213 138.443 589.818 138.428C589.271 138.416 588.807 138.631 588.424 139.072C588.041 139.514 587.805 140.092 587.715 140.807L587.703 140.941ZM593.346 140.818C593.424 140.174 593.602 139.592 593.879 139.072C594.156 138.553 594.498 138.164 594.904 137.906C595.311 137.648 595.758 137.525 596.246 137.537C596.953 137.553 597.496 137.811 597.875 138.311L598.484 135H599.545L597.986 144H597.02L597.131 143.32C596.631 143.867 596.014 144.133 595.279 144.117C594.693 144.102 594.227 143.873 593.879 143.432C593.531 142.986 593.344 142.391 593.316 141.645C593.305 141.414 593.314 141.139 593.346 140.818ZM594.365 141.428C594.354 141.986 594.453 142.42 594.664 142.729C594.875 143.037 595.184 143.195 595.59 143.203C596.203 143.23 596.748 142.922 597.225 142.277L597.729 139.348C597.494 138.77 597.068 138.473 596.451 138.457C596.033 138.445 595.664 138.572 595.344 138.838C595.027 139.1 594.785 139.469 594.617 139.945C594.453 140.418 594.369 140.912 594.365 141.428ZM565.139 155.803C565.225 155.178 564.9 154.721 564.166 154.432L563.152 154.062L562.812 153.916C561.672 153.396 561.139 152.666 561.213 151.725C561.252 151.252 561.414 150.834 561.699 150.471C561.984 150.107 562.361 149.828 562.83 149.633C563.303 149.434 563.805 149.34 564.336 149.352C564.852 149.363 565.311 149.479 565.713 149.697C566.119 149.916 566.428 150.223 566.639 150.617C566.85 151.008 566.943 151.449 566.92 151.941L565.812 151.936C565.852 151.412 565.734 151.008 565.461 150.723C565.188 150.434 564.797 150.285 564.289 150.277C563.754 150.27 563.307 150.395 562.947 150.652C562.588 150.91 562.381 151.262 562.326 151.707C562.248 152.289 562.605 152.73 563.398 153.031L564.271 153.342L564.711 153.529C565.812 154.037 566.322 154.791 566.24 155.791C566.197 156.271 566.035 156.688 565.754 157.039C565.473 157.387 565.09 157.656 564.605 157.848C564.125 158.039 563.607 158.129 563.053 158.117C562.518 158.113 562.027 158 561.582 157.777C561.141 157.551 560.805 157.242 560.574 156.852C560.344 156.461 560.242 156.018 560.27 155.521L561.371 155.527C561.336 156.035 561.473 156.439 561.781 156.74C562.094 157.037 562.533 157.189 563.1 157.197C563.666 157.205 564.133 157.082 564.5 156.828C564.867 156.574 565.08 156.232 565.139 155.803ZM568.303 158H567.248L568.807 149H569.867L568.303 158ZM573.559 151.543C574.09 151.551 574.545 151.695 574.924 151.977C575.303 152.258 575.582 152.646 575.762 153.143C575.945 153.635 576.008 154.174 575.949 154.76L575.938 154.889C575.863 155.506 575.68 156.064 575.387 156.564C575.094 157.061 574.715 157.447 574.25 157.725C573.785 158.002 573.275 158.133 572.721 158.117C572.193 158.109 571.738 157.965 571.355 157.684C570.977 157.402 570.699 157.02 570.523 156.535C570.348 156.051 570.285 155.518 570.336 154.936C570.395 154.279 570.572 153.689 570.869 153.166C571.166 152.643 571.547 152.238 572.012 151.953C572.48 151.664 572.996 151.527 573.559 151.543ZM571.402 154.941C571.375 155.188 571.375 155.443 571.402 155.709C571.441 156.17 571.578 156.537 571.812 156.811C572.051 157.084 572.367 157.227 572.762 157.238C573.113 157.25 573.438 157.164 573.734 156.98C574.031 156.793 574.281 156.512 574.484 156.137C574.688 155.762 574.818 155.346 574.877 154.889C574.908 154.529 574.914 154.227 574.895 153.98C574.848 153.508 574.705 153.135 574.467 152.861C574.229 152.588 573.912 152.443 573.518 152.428C572.971 152.416 572.506 152.631 572.123 153.072C571.74 153.514 571.504 154.092 571.414 154.807L571.402 154.941ZM578.949 156.518L581.234 151.66H582.354L579.16 158H578.352L577.109 151.66H578.152L578.949 156.518ZM586.127 158C586.1 157.887 586.086 157.775 586.086 157.666L586.104 157.332C585.521 157.871 584.904 158.133 584.252 158.117C583.693 158.109 583.238 157.934 582.887 157.59C582.539 157.242 582.381 156.809 582.412 156.289C582.451 155.617 582.744 155.094 583.291 154.719C583.842 154.34 584.564 154.15 585.459 154.15L586.566 154.156L586.637 153.652C586.676 153.273 586.602 152.975 586.414 152.756C586.23 152.533 585.953 152.418 585.582 152.41C585.219 152.402 584.896 152.492 584.615 152.68C584.338 152.863 584.168 153.107 584.105 153.412L583.039 153.418C583.074 153.047 583.219 152.719 583.473 152.434C583.727 152.145 584.053 151.922 584.451 151.766C584.85 151.605 585.262 151.529 585.688 151.537C586.348 151.553 586.861 151.754 587.229 152.141C587.596 152.523 587.75 153.033 587.691 153.67L587.176 156.811L587.146 157.262C587.139 157.477 587.162 157.689 587.217 157.9L587.205 158H586.127ZM584.463 157.18C584.803 157.188 585.123 157.107 585.424 156.939C585.729 156.768 585.99 156.531 586.209 156.23L586.438 154.924L585.635 154.918C584.967 154.918 584.455 155.023 584.1 155.234C583.744 155.445 583.543 155.744 583.496 156.131C583.461 156.428 583.529 156.676 583.701 156.875C583.877 157.07 584.131 157.172 584.463 157.18ZM590.75 151.654L590.598 152.457C591.168 151.832 591.816 151.527 592.543 151.543C593.141 151.559 593.582 151.766 593.867 152.164C594.152 152.562 594.258 153.123 594.184 153.846L593.492 158H592.432L593.129 153.828C593.152 153.637 593.154 153.459 593.135 153.295C593.068 152.748 592.746 152.469 592.168 152.457C591.531 152.445 590.973 152.785 590.492 153.477L589.707 158H588.646L589.748 151.66L590.75 151.654ZM599.152 157.373C598.656 157.885 598.025 158.133 597.26 158.117C596.654 158.102 596.205 157.885 595.912 157.467C595.623 157.049 595.516 156.479 595.59 155.756L596.27 151.66H597.33L596.645 155.773C596.625 155.945 596.621 156.113 596.633 156.277C596.652 156.559 596.736 156.779 596.885 156.939C597.033 157.1 597.24 157.186 597.506 157.197C598.264 157.221 598.85 156.914 599.264 156.277L600.061 151.66H601.121L600.02 158H599.018L599.152 157.373ZM597.787 149.732C597.795 149.377 597.924 149.076 598.174 148.83C598.428 148.584 598.729 148.461 599.076 148.461C599.396 148.461 599.668 148.574 599.891 148.801C600.117 149.027 600.23 149.307 600.23 149.639C600.223 149.986 600.092 150.281 599.838 150.523C599.588 150.766 599.289 150.887 598.941 150.887C598.613 150.887 598.336 150.775 598.109 150.553C597.887 150.33 597.779 150.057 597.787 149.732ZM598.35 149.721C598.334 149.9 598.379 150.053 598.484 150.178C598.59 150.299 598.727 150.359 598.895 150.359C599.074 150.359 599.24 150.291 599.393 150.154C599.549 150.014 599.639 149.846 599.662 149.65C599.686 149.471 599.643 149.316 599.533 149.188C599.424 149.059 599.287 148.994 599.123 148.994C598.943 148.994 598.775 149.066 598.619 149.211C598.463 149.352 598.373 149.521 598.35 149.721Z" fill="#2D3748"/>
<path d="M373.666 3.59668L373.488 4.5332C374.154 3.80404 374.91 3.44857 375.758 3.4668C376.455 3.48503 376.97 3.72656 377.303 4.19141C377.635 4.65625 377.758 5.31022 377.672 6.15332L376.865 11H375.628L376.441 6.13281C376.469 5.90951 376.471 5.70215 376.448 5.51074C376.371 4.87272 375.995 4.54688 375.32 4.5332C374.577 4.51953 373.926 4.91602 373.365 5.72266L372.449 11H371.212L372.497 3.60352L373.666 3.59668ZM379.682 9.56445C379.905 9.5599 380.09 9.62826 380.235 9.76953C380.381 9.91081 380.452 10.0931 380.447 10.3164C380.443 10.5397 380.368 10.722 380.222 10.8633C380.076 11 379.894 11.0729 379.675 11.082C379.456 11.0911 379.276 11.0296 379.135 10.8975C378.993 10.7607 378.923 10.5807 378.923 10.3574C378.923 10.1341 378.993 9.94954 379.135 9.80371C379.276 9.65332 379.458 9.57357 379.682 9.56445ZM383.763 11H382.532L384.351 0.5H385.588L383.763 11ZM386.695 9.56445C386.919 9.5599 387.103 9.62826 387.249 9.76953C387.395 9.91081 387.465 10.0931 387.461 10.3164C387.456 10.5397 387.381 10.722 387.235 10.8633C387.09 11 386.907 11.0729 386.688 11.082C386.47 11.0911 386.29 11.0296 386.148 10.8975C386.007 10.7607 385.937 10.5807 385.937 10.3574C385.937 10.1341 386.007 9.94954 386.148 9.80371C386.29 9.65332 386.472 9.57357 386.695 9.56445Z" fill="#2D3748"/>
<path d="M510.385 37.1836H511.835V39.2314H510.385V42H507.845V39.2314H502.598L502.483 37.6318L507.818 29.2031H510.385V37.1836ZM505.015 37.1836H507.845V32.666L507.678 32.9561L505.015 37.1836ZM521.819 36.709C521.819 38.4785 521.453 39.832 520.721 40.7695C519.988 41.707 518.916 42.1758 517.504 42.1758C516.109 42.1758 515.043 41.7158 514.305 40.7959C513.566 39.876 513.188 38.5576 513.171 36.8408V34.4854C513.171 32.6982 513.54 31.3418 514.278 30.416C515.022 29.4902 516.092 29.0273 517.486 29.0273C518.881 29.0273 519.947 29.4873 520.686 30.4072C521.424 31.3213 521.802 32.6367 521.819 34.3535V36.709ZM519.279 34.125C519.279 33.0645 519.133 32.2939 518.84 31.8135C518.553 31.3271 518.102 31.084 517.486 31.084C516.889 31.084 516.446 31.3154 516.159 31.7783C515.878 32.2354 515.729 32.9531 515.711 33.9316V37.043C515.711 38.0859 515.852 38.8623 516.133 39.3721C516.42 39.876 516.877 40.1279 517.504 40.1279C518.125 40.1279 518.573 39.8848 518.849 39.3984C519.124 38.9121 519.268 38.168 519.279 37.166V34.125ZM532.155 36.709C532.155 38.4785 531.789 39.832 531.057 40.7695C530.324 41.707 529.252 42.1758 527.84 42.1758C526.445 42.1758 525.379 41.7158 524.641 40.7959C523.902 39.876 523.524 38.5576 523.507 36.8408V34.4854C523.507 32.6982 523.876 31.3418 524.614 30.416C525.358 29.4902 526.428 29.0273 527.822 29.0273C529.217 29.0273 530.283 29.4873 531.021 30.4072C531.76 31.3213 532.138 32.6367 532.155 34.3535V36.709ZM529.615 34.125C529.615 33.0645 529.469 32.2939 529.176 31.8135C528.889 31.3271 528.438 31.084 527.822 31.084C527.225 31.084 526.782 31.3154 526.495 31.7783C526.214 32.2354 526.064 32.9531 526.047 33.9316V37.043C526.047 38.0859 526.188 38.8623 526.469 39.3721C526.756 39.876 527.213 40.1279 527.84 40.1279C528.461 40.1279 528.909 39.8848 529.185 39.3984C529.46 38.9121 529.604 38.168 529.615 37.166V34.125Z" fill="#2D3748"/>
<path d="M183.454 34.4766H184.808C185.452 34.4766 185.93 34.3154 186.24 33.9932C186.551 33.6709 186.706 33.2432 186.706 32.71C186.706 32.1943 186.551 31.793 186.24 31.5059C185.936 31.2188 185.514 31.0752 184.975 31.0752C184.488 31.0752 184.081 31.21 183.753 31.4795C183.425 31.7432 183.261 32.0889 183.261 32.5166H180.721C180.721 31.8486 180.899 31.251 181.257 30.7236C181.62 30.1904 182.124 29.7744 182.769 29.4756C183.419 29.1768 184.134 29.0273 184.913 29.0273C186.267 29.0273 187.327 29.3525 188.095 30.0029C188.862 30.6475 189.246 31.5381 189.246 32.6748C189.246 33.2607 189.067 33.7998 188.71 34.292C188.353 34.7842 187.884 35.1621 187.304 35.4258C188.024 35.6836 188.561 36.0703 188.912 36.5859C189.27 37.1016 189.448 37.7109 189.448 38.4141C189.448 39.5508 189.032 40.4619 188.2 41.1475C187.374 41.833 186.278 42.1758 184.913 42.1758C183.636 42.1758 182.59 41.8389 181.775 41.165C180.967 40.4912 180.562 39.6006 180.562 38.4932H183.103C183.103 38.9736 183.281 39.3662 183.639 39.6709C184.002 39.9756 184.447 40.1279 184.975 40.1279C185.578 40.1279 186.05 39.9697 186.39 39.6533C186.735 39.3311 186.908 38.9062 186.908 38.3789C186.908 37.1016 186.205 36.4629 184.799 36.4629H183.454V34.4766ZM199.819 36.709C199.819 38.4785 199.453 39.832 198.721 40.7695C197.988 41.707 196.916 42.1758 195.504 42.1758C194.109 42.1758 193.043 41.7158 192.305 40.7959C191.566 39.876 191.188 38.5576 191.171 36.8408V34.4854C191.171 32.6982 191.54 31.3418 192.278 30.416C193.022 29.4902 194.092 29.0273 195.486 29.0273C196.881 29.0273 197.947 29.4873 198.686 30.4072C199.424 31.3213 199.802 32.6367 199.819 34.3535V36.709ZM197.279 34.125C197.279 33.0645 197.133 32.2939 196.84 31.8135C196.553 31.3271 196.102 31.084 195.486 31.084C194.889 31.084 194.446 31.3154 194.159 31.7783C193.878 32.2354 193.729 32.9531 193.711 33.9316V37.043C193.711 38.0859 193.852 38.8623 194.133 39.3721C194.42 39.876 194.877 40.1279 195.504 40.1279C196.125 40.1279 196.573 39.8848 196.849 39.3984C197.124 38.9121 197.268 38.168 197.279 37.166V34.125ZM210.155 36.709C210.155 38.4785 209.789 39.832 209.057 40.7695C208.324 41.707 207.252 42.1758 205.84 42.1758C204.445 42.1758 203.379 41.7158 202.641 40.7959C201.902 39.876 201.524 38.5576 201.507 36.8408V34.4854C201.507 32.6982 201.876 31.3418 202.614 30.416C203.358 29.4902 204.428 29.0273 205.822 29.0273C207.217 29.0273 208.283 29.4873 209.021 30.4072C209.76 31.3213 210.138 32.6367 210.155 34.3535V36.709ZM207.615 34.125C207.615 33.0645 207.469 32.2939 207.176 31.8135C206.889 31.3271 206.438 31.084 205.822 31.084C205.225 31.084 204.782 31.3154 204.495 31.7783C204.214 32.2354 204.064 32.9531 204.047 33.9316V37.043C204.047 38.0859 204.188 38.8623 204.469 39.3721C204.756 39.876 205.213 40.1279 205.84 40.1279C206.461 40.1279 206.909 39.8848 207.185 39.3984C207.46 38.9121 207.604 38.168 207.615 37.166V34.125Z" fill="#2D3748"/>
<path d="M462.454 34.4766H463.808C464.452 34.4766 464.93 34.3154 465.24 33.9932C465.551 33.6709 465.706 33.2432 465.706 32.71C465.706 32.1943 465.551 31.793 465.24 31.5059C464.936 31.2188 464.514 31.0752 463.975 31.0752C463.488 31.0752 463.081 31.21 462.753 31.4795C462.425 31.7432 462.261 32.0889 462.261 32.5166H459.721C459.721 31.8486 459.899 31.251 460.257 30.7236C460.62 30.1904 461.124 29.7744 461.769 29.4756C462.419 29.1768 463.134 29.0273 463.913 29.0273C465.267 29.0273 466.327 29.3525 467.095 30.0029C467.862 30.6475 468.246 31.5381 468.246 32.6748C468.246 33.2607 468.067 33.7998 467.71 34.292C467.353 34.7842 466.884 35.1621 466.304 35.4258C467.024 35.6836 467.561 36.0703 467.912 36.5859C468.27 37.1016 468.448 37.7109 468.448 38.4141C468.448 39.5508 468.032 40.4619 467.2 41.1475C466.374 41.833 465.278 42.1758 463.913 42.1758C462.636 42.1758 461.59 41.8389 460.775 41.165C459.967 40.4912 459.562 39.6006 459.562 38.4932H462.103C462.103 38.9736 462.281 39.3662 462.639 39.6709C463.002 39.9756 463.447 40.1279 463.975 40.1279C464.578 40.1279 465.05 39.9697 465.39 39.6533C465.735 39.3311 465.908 38.9062 465.908 38.3789C465.908 37.1016 465.205 36.4629 463.799 36.4629H462.454V34.4766ZM478.819 36.709C478.819 38.4785 478.453 39.832 477.721 40.7695C476.988 41.707 475.916 42.1758 474.504 42.1758C473.109 42.1758 472.043 41.7158 471.305 40.7959C470.566 39.876 470.188 38.5576 470.171 36.8408V34.4854C470.171 32.6982 470.54 31.3418 471.278 30.416C472.022 29.4902 473.092 29.0273 474.486 29.0273C475.881 29.0273 476.947 29.4873 477.686 30.4072C478.424 31.3213 478.802 32.6367 478.819 34.3535V36.709ZM476.279 34.125C476.279 33.0645 476.133 32.2939 475.84 31.8135C475.553 31.3271 475.102 31.084 474.486 31.084C473.889 31.084 473.446 31.3154 473.159 31.7783C472.878 32.2354 472.729 32.9531 472.711 33.9316V37.043C472.711 38.0859 472.852 38.8623 473.133 39.3721C473.42 39.876 473.877 40.1279 474.504 40.1279C475.125 40.1279 475.573 39.8848 475.849 39.3984C476.124 38.9121 476.268 38.168 476.279 37.166V34.125ZM489.155 36.709C489.155 38.4785 488.789 39.832 488.057 40.7695C487.324 41.707 486.252 42.1758 484.84 42.1758C483.445 42.1758 482.379 41.7158 481.641 40.7959C480.902 39.876 480.524 38.5576 480.507 36.8408V34.4854C480.507 32.6982 480.876 31.3418 481.614 30.416C482.358 29.4902 483.428 29.0273 484.822 29.0273C486.217 29.0273 487.283 29.4873 488.021 30.4072C488.76 31.3213 489.138 32.6367 489.155 34.3535V36.709ZM486.615 34.125C486.615 33.0645 486.469 32.2939 486.176 31.8135C485.889 31.3271 485.438 31.084 484.822 31.084C484.225 31.084 483.782 31.3154 483.495 31.7783C483.214 32.2354 483.064 32.9531 483.047 33.9316V37.043C483.047 38.0859 483.188 38.8623 483.469 39.3721C483.756 39.876 484.213 40.1279 484.84 40.1279C485.461 40.1279 485.909 39.8848 486.185 39.3984C486.46 38.9121 486.604 38.168 486.615 37.166V34.125Z" fill="#2D3748"/>
<path d="M237.642 42H228.87V40.2598L233.01 35.8477C233.578 35.2266 233.997 34.6846 234.267 34.2217C234.542 33.7588 234.68 33.3193 234.68 32.9033C234.68 32.335 234.536 31.8896 234.249 31.5674C233.962 31.2393 233.552 31.0752 233.019 31.0752C232.444 31.0752 231.99 31.2744 231.656 31.6729C231.328 32.0654 231.164 32.584 231.164 33.2285H228.615C228.615 32.4492 228.8 31.7373 229.169 31.0928C229.544 30.4482 230.071 29.9443 230.751 29.5811C231.431 29.2119 232.201 29.0273 233.062 29.0273C234.381 29.0273 235.403 29.3438 236.13 29.9766C236.862 30.6094 237.229 31.5029 237.229 32.6572C237.229 33.29 237.064 33.9346 236.736 34.5908C236.408 35.2471 235.846 36.0117 235.049 36.8848L232.14 39.9521H237.642V42ZM247.819 36.709C247.819 38.4785 247.453 39.832 246.721 40.7695C245.988 41.707 244.916 42.1758 243.504 42.1758C242.109 42.1758 241.043 41.7158 240.305 40.7959C239.566 39.876 239.188 38.5576 239.171 36.8408V34.4854C239.171 32.6982 239.54 31.3418 240.278 30.416C241.022 29.4902 242.092 29.0273 243.486 29.0273C244.881 29.0273 245.947 29.4873 246.686 30.4072C247.424 31.3213 247.802 32.6367 247.819 34.3535V36.709ZM245.279 34.125C245.279 33.0645 245.133 32.2939 244.84 31.8135C244.553 31.3271 244.102 31.084 243.486 31.084C242.889 31.084 242.446 31.3154 242.159 31.7783C241.878 32.2354 241.729 32.9531 241.711 33.9316V37.043C241.711 38.0859 241.852 38.8623 242.133 39.3721C242.42 39.876 242.877 40.1279 243.504 40.1279C244.125 40.1279 244.573 39.8848 244.849 39.3984C245.124 38.9121 245.268 38.168 245.279 37.166V34.125ZM258.155 36.709C258.155 38.4785 257.789 39.832 257.057 40.7695C256.324 41.707 255.252 42.1758 253.84 42.1758C252.445 42.1758 251.379 41.7158 250.641 40.7959C249.902 39.876 249.524 38.5576 249.507 36.8408V34.4854C249.507 32.6982 249.876 31.3418 250.614 30.416C251.358 29.4902 252.428 29.0273 253.822 29.0273C255.217 29.0273 256.283 29.4873 257.021 30.4072C257.76 31.3213 258.138 32.6367 258.155 34.3535V36.709ZM255.615 34.125C255.615 33.0645 255.469 32.2939 255.176 31.8135C254.889 31.3271 254.438 31.084 253.822 31.084C253.225 31.084 252.782 31.3154 252.495 31.7783C252.214 32.2354 252.064 32.9531 252.047 33.9316V37.043C252.047 38.0859 252.188 38.8623 252.469 39.3721C252.756 39.876 253.213 40.1279 253.84 40.1279C254.461 40.1279 254.909 39.8848 255.185 39.3984C255.46 38.9121 255.604 38.168 255.615 37.166V34.125Z" fill="#2D3748"/>
<path d="M422.642 42H413.87V40.2598L418.01 35.8477C418.578 35.2266 418.997 34.6846 419.267 34.2217C419.542 33.7588 419.68 33.3193 419.68 32.9033C419.68 32.335 419.536 31.8896 419.249 31.5674C418.962 31.2393 418.552 31.0752 418.019 31.0752C417.444 31.0752 416.99 31.2744 416.656 31.6729C416.328 32.0654 416.164 32.584 416.164 33.2285H413.615C413.615 32.4492 413.8 31.7373 414.169 31.0928C414.544 30.4482 415.071 29.9443 415.751 29.5811C416.431 29.2119 417.201 29.0273 418.062 29.0273C419.381 29.0273 420.403 29.3438 421.13 29.9766C421.862 30.6094 422.229 31.5029 422.229 32.6572C422.229 33.29 422.064 33.9346 421.736 34.5908C421.408 35.2471 420.846 36.0117 420.049 36.8848L417.14 39.9521H422.642V42ZM432.819 36.709C432.819 38.4785 432.453 39.832 431.721 40.7695C430.988 41.707 429.916 42.1758 428.504 42.1758C427.109 42.1758 426.043 41.7158 425.305 40.7959C424.566 39.876 424.188 38.5576 424.171 36.8408V34.4854C424.171 32.6982 424.54 31.3418 425.278 30.416C426.022 29.4902 427.092 29.0273 428.486 29.0273C429.881 29.0273 430.947 29.4873 431.686 30.4072C432.424 31.3213 432.802 32.6367 432.819 34.3535V36.709ZM430.279 34.125C430.279 33.0645 430.133 32.2939 429.84 31.8135C429.553 31.3271 429.102 31.084 428.486 31.084C427.889 31.084 427.446 31.3154 427.159 31.7783C426.878 32.2354 426.729 32.9531 426.711 33.9316V37.043C426.711 38.0859 426.852 38.8623 427.133 39.3721C427.42 39.876 427.877 40.1279 428.504 40.1279C429.125 40.1279 429.573 39.8848 429.849 39.3984C430.124 38.9121 430.268 38.168 430.279 37.166V34.125ZM443.155 36.709C443.155 38.4785 442.789 39.832 442.057 40.7695C441.324 41.707 440.252 42.1758 438.84 42.1758C437.445 42.1758 436.379 41.7158 435.641 40.7959C434.902 39.876 434.524 38.5576 434.507 36.8408V34.4854C434.507 32.6982 434.876 31.3418 435.614 30.416C436.358 29.4902 437.428 29.0273 438.822 29.0273C440.217 29.0273 441.283 29.4873 442.021 30.4072C442.76 31.3213 443.138 32.6367 443.155 34.3535V36.709ZM440.615 34.125C440.615 33.0645 440.469 32.2939 440.176 31.8135C439.889 31.3271 439.438 31.084 438.822 31.084C438.225 31.084 437.782 31.3154 437.495 31.7783C437.214 32.2354 437.064 32.9531 437.047 33.9316V37.043C437.047 38.0859 437.188 38.8623 437.469 39.3721C437.756 39.876 438.213 40.1279 438.84 40.1279C439.461 40.1279 439.909 39.8848 440.185 39.3984C440.46 38.9121 440.604 38.168 440.615 37.166V34.125Z" fill="#2D3748"/>
<path d="M278.04 42H275.5V32.209L272.468 33.1494V31.084L277.768 29.1855H278.04V42ZM290.819 36.709C290.819 38.4785 290.453 39.832 289.721 40.7695C288.988 41.707 287.916 42.1758 286.504 42.1758C285.109 42.1758 284.043 41.7158 283.305 40.7959C282.566 39.876 282.188 38.5576 282.171 36.8408V34.4854C282.171 32.6982 282.54 31.3418 283.278 30.416C284.022 29.4902 285.092 29.0273 286.486 29.0273C287.881 29.0273 288.947 29.4873 289.686 30.4072C290.424 31.3213 290.802 32.6367 290.819 34.3535V36.709ZM288.279 34.125C288.279 33.0645 288.133 32.2939 287.84 31.8135C287.553 31.3271 287.102 31.084 286.486 31.084C285.889 31.084 285.446 31.3154 285.159 31.7783C284.878 32.2354 284.729 32.9531 284.711 33.9316V37.043C284.711 38.0859 284.852 38.8623 285.133 39.3721C285.42 39.876 285.877 40.1279 286.504 40.1279C287.125 40.1279 287.573 39.8848 287.849 39.3984C288.124 38.9121 288.268 38.168 288.279 37.166V34.125ZM301.155 36.709C301.155 38.4785 300.789 39.832 300.057 40.7695C299.324 41.707 298.252 42.1758 296.84 42.1758C295.445 42.1758 294.379 41.7158 293.641 40.7959C292.902 39.876 292.524 38.5576 292.507 36.8408V34.4854C292.507 32.6982 292.876 31.3418 293.614 30.416C294.358 29.4902 295.428 29.0273 296.822 29.0273C298.217 29.0273 299.283 29.4873 300.021 30.4072C300.76 31.3213 301.138 32.6367 301.155 34.3535V36.709ZM298.615 34.125C298.615 33.0645 298.469 32.2939 298.176 31.8135C297.889 31.3271 297.438 31.084 296.822 31.084C296.225 31.084 295.782 31.3154 295.495 31.7783C295.214 32.2354 295.064 32.9531 295.047 33.9316V37.043C295.047 38.0859 295.188 38.8623 295.469 39.3721C295.756 39.876 296.213 40.1279 296.84 40.1279C297.461 40.1279 297.909 39.8848 298.185 39.3984C298.46 38.9121 298.604 38.168 298.615 37.166V34.125Z" fill="#2D3748"/>
<path d="M370.04 42H367.5V32.209L364.468 33.1494V31.084L369.768 29.1855H370.04V42ZM382.819 36.709C382.819 38.4785 382.453 39.832 381.721 40.7695C380.988 41.707 379.916 42.1758 378.504 42.1758C377.109 42.1758 376.043 41.7158 375.305 40.7959C374.566 39.876 374.188 38.5576 374.171 36.8408V34.4854C374.171 32.6982 374.54 31.3418 375.278 30.416C376.022 29.4902 377.092 29.0273 378.486 29.0273C379.881 29.0273 380.947 29.4873 381.686 30.4072C382.424 31.3213 382.802 32.6367 382.819 34.3535V36.709ZM380.279 34.125C380.279 33.0645 380.133 32.2939 379.84 31.8135C379.553 31.3271 379.102 31.084 378.486 31.084C377.889 31.084 377.446 31.3154 377.159 31.7783C376.878 32.2354 376.729 32.9531 376.711 33.9316V37.043C376.711 38.0859 376.852 38.8623 377.133 39.3721C377.42 39.876 377.877 40.1279 378.504 40.1279C379.125 40.1279 379.573 39.8848 379.849 39.3984C380.124 38.9121 380.268 38.168 380.279 37.166V34.125ZM393.155 36.709C393.155 38.4785 392.789 39.832 392.057 40.7695C391.324 41.707 390.252 42.1758 388.84 42.1758C387.445 42.1758 386.379 41.7158 385.641 40.7959C384.902 39.876 384.524 38.5576 384.507 36.8408V34.4854C384.507 32.6982 384.876 31.3418 385.614 30.416C386.358 29.4902 387.428 29.0273 388.822 29.0273C390.217 29.0273 391.283 29.4873 392.021 30.4072C392.76 31.3213 393.138 32.6367 393.155 34.3535V36.709ZM390.615 34.125C390.615 33.0645 390.469 32.2939 390.176 31.8135C389.889 31.3271 389.438 31.084 388.822 31.084C388.225 31.084 387.782 31.3154 387.495 31.7783C387.214 32.2354 387.064 32.9531 387.047 33.9316V37.043C387.047 38.0859 387.188 38.8623 387.469 39.3721C387.756 39.876 388.213 40.1279 388.84 40.1279C389.461 40.1279 389.909 39.8848 390.185 39.3984C390.46 38.9121 390.604 38.168 390.615 37.166V34.125Z" fill="#2D3748"/>
<path d="M336.483 36.709C336.483 38.4785 336.117 39.832 335.385 40.7695C334.652 41.707 333.58 42.1758 332.168 42.1758C330.773 42.1758 329.707 41.7158 328.969 40.7959C328.23 39.876 327.853 38.5576 327.835 36.8408V34.4854C327.835 32.6982 328.204 31.3418 328.942 30.416C329.687 29.4902 330.756 29.0273 332.15 29.0273C333.545 29.0273 334.611 29.4873 335.35 30.4072C336.088 31.3213 336.466 32.6367 336.483 34.3535V36.709ZM333.943 34.125C333.943 33.0645 333.797 32.2939 333.504 31.8135C333.217 31.3271 332.766 31.084 332.15 31.084C331.553 31.084 331.11 31.3154 330.823 31.7783C330.542 32.2354 330.393 32.9531 330.375 33.9316V37.043C330.375 38.0859 330.516 38.8623 330.797 39.3721C331.084 39.876 331.541 40.1279 332.168 40.1279C332.789 40.1279 333.237 39.8848 333.513 39.3984C333.788 38.9121 333.932 38.168 333.943 37.166V34.125Z" fill="#2D3748"/>
<rect x="143" y="125.518" width="6.83133" height="33" transform="rotate(-90 143 125.518)" fill="#E53E3E"/>
<path d="M186 122.102L171 131.963V112.242L186 122.102Z" fill="#C53030"/>
<rect x="143" y="59.4819" width="6" height="60.3434" fill="#E53E3E"/>
<rect x="329" y="125.518" width="6.83133" height="33" transform="rotate(-90 329 125.518)" fill="#E53E3E"/>
<path d="M372 122.102L357 131.963V112.242L372 122.102Z" fill="#C53030"/>
<rect x="329" y="59.4819" width="6" height="60.3434" fill="#E53E3E"/>
<rect x="562" y="125.518" width="6.83133" height="33" transform="rotate(-90 562 125.518)" fill="#E53E3E"/>
<path d="M605 122.102L590 131.963V112.242L605 122.102Z" fill="#C53030"/>
<rect x="562" y="59.4819" width="6" height="60.3434" fill="#E53E3E"/>
<rect x="623" y="69" width="15" height="50" fill="#81E6D9"/>
</svg>
